<svg xmlns="http://www.w3.org/2000/svg" xmlns:xlink="http://www.w3.org/1999/xlink" width="2000" zoomAndPan="magnify" viewBox="0 0 1500 1499.999933" height="2000" preserveAspectRatio="xMidYMid meet" version="1.0"><defs><g/><clipPath id="d424244440"><path d="M 368 263.246094 L 1132 263.246094 L 1132 1236.746094 L 368 1236.746094 Z M 368 263.246094 " clip-rule="nonzero"/></clipPath></defs><rect x="-150" width="1800" fill="#ffffff" y="-149.999993" height="1799.99992" fill-opacity="1"/><rect x="-150" width="1800" fill="#711010" y="-149.999993" height="1799.99992" fill-opacity="1"/><g clip-path="url(#d424244440)"><path fill="#ffffff" d="M 687.5625 460.0625 C 687.5625 394.457031 740.472656 347.898438 833.589844 347.898438 C 939.402344 347.898438 1028.289062 407.15625 1028.289062 519.320312 L 1038.871094 519.320312 L 1038.871094 394.457031 L 1028.289062 394.457031 C 1028.289062 413.503906 1026.171875 424.085938 1019.824219 424.085938 C 1013.472656 424.085938 1007.125 419.851562 998.660156 409.273438 C 962.683594 364.828125 899.195312 339.433594 827.238281 339.433594 C 706.609375 339.433594 619.839844 415.621094 619.839844 508.738281 C 619.839844 597.621094 698.144531 656.878906 808.191406 701.320312 C 975.378906 771.160156 1064.265625 870.625 1064.265625 989.140625 C 1064.265625 1014.535156 1060.03125 1037.8125 1053.683594 1058.976562 C 998.660156 1054.746094 954.21875 1020.882812 882.261719 934.113281 L 533.074219 517.203125 L 676.980469 333.085938 C 710.84375 288.640625 744.703125 267.480469 778.566406 267.480469 L 778.566406 263.246094 L 657.933594 263.246094 L 657.933594 267.480469 C 679.097656 267.480469 685.445312 273.828125 685.445312 284.410156 C 685.445312 297.109375 679.097656 311.921875 666.398438 326.734375 L 499.210938 538.367188 L 499.210938 356.363281 C 499.210938 292.875 516.144531 267.480469 556.351562 267.480469 L 556.351562 263.246094 L 368 263.246094 L 368 267.480469 C 410.328125 267.480469 425.140625 292.875 425.140625 356.363281 L 425.140625 779.625 C 425.140625 843.113281 410.328125 868.507812 368 868.507812 L 368 872.742188 L 520.375 872.742188 C 511.910156 898.136719 507.675781 925.648438 507.675781 955.277344 C 507.675781 1111.882812 645.238281 1236.746094 827.238281 1236.746094 C 1007.125 1236.746094 1131.988281 1114 1131.988281 936.230469 C 1131.988281 809.253906 1066.382812 730.949219 886.496094 648.414062 C 748.9375 584.925781 687.5625 527.785156 687.5625 460.0625 Z M 1043.101562 1086.488281 C 1005.007812 1158.445312 926.707031 1205.003906 820.890625 1205.003906 C 655.820312 1205.003906 526.722656 1092.839844 526.722656 946.8125 C 526.722656 860.042969 569.050781 781.742188 636.773438 754.230469 L 818.773438 976.441406 C 867.449219 1037.8125 939.402344 1086.488281 1030.40625 1086.488281 C 1034.636719 1086.488281 1038.871094 1086.488281 1043.101562 1086.488281 Z M 632.539062 747.878906 C 583.863281 766.925781 545.769531 809.253906 524.609375 860.042969 C 507.675781 849.464844 499.210938 821.949219 499.210938 779.625 L 499.210938 582.808594 Z M 632.539062 747.878906 " fill-opacity="1" fill-rule="nonzero"/></g><g fill="#711010" fill-opacity="1"><g transform="translate(190.052508, 1438.014456)"><g><path d="M 15.59375 0 L 15.59375 -119.9375 L 39.296875 -119.9375 L 39.296875 -70.953125 L 41.921875 -70.953125 L 81.953125 -119.9375 L 106.234375 -119.9375 L 106.234375 -117.875 L 62.09375 -63.328125 L 110.828125 -2.046875 L 110.828125 0 L 84 0 L 41.921875 -51.765625 L 39.296875 -51.765625 L 39.296875 0 Z M 15.59375 0 "/></g></g><g transform="translate(300.876718, 1438.014456)"><g><path d="M 115.09375 0 L 90.15625 0 L 81.125 -27.640625 L 35.1875 -27.640625 L 26.171875 0 L 1.8125 0 L 43.234375 -119.9375 L 73.671875 -119.9375 Z M 57.015625 -94.90625 L 41.59375 -47.578125 L 74.5625 -47.578125 L 59.0625 -94.90625 Z M 57.015625 -94.90625 "/></g></g><g transform="translate(417.771239, 1438.014456)"><g><path d="M 37.328125 0 L 15.59375 0 L 15.59375 -119.9375 L 46.59375 -119.9375 L 76.953125 -31.75 L 78.671875 -31.75 L 108.859375 -119.9375 L 139.125 -119.9375 L 139.125 0 L 116.65625 0 L 116.65625 -79.25 L 114.59375 -79.578125 L 86.875 0 L 67.109375 0 L 39.375 -79.578125 L 37.328125 -79.25 Z M 37.328125 0 "/></g></g><g transform="translate(572.564194, 1438.014456)"><g><path d="M 115.09375 0 L 90.15625 0 L 81.125 -27.640625 L 35.1875 -27.640625 L 26.171875 0 L 1.8125 0 L 43.234375 -119.9375 L 73.671875 -119.9375 Z M 57.015625 -94.90625 L 41.59375 -47.578125 L 74.5625 -47.578125 L 59.0625 -94.90625 Z M 57.015625 -94.90625 "/></g></g><g transform="translate(689.458715, 1438.014456)"><g><path d="M 39.296875 -119.9375 L 39.296875 -19.859375 L 93.1875 -19.859375 L 93.1875 0 L 15.59375 0 L 15.59375 -119.9375 Z M 39.296875 -119.9375 "/></g></g><g transform="translate(786.583707, 1438.014456)"><g/></g><g transform="translate(826.204797, 1438.014456)"><g><path d="M 53.15625 1.71875 C 44.84375 1.71875 37.445312 0.691406 30.96875 -1.359375 C 24.488281 -3.410156 19.085938 -6.101562 14.765625 -9.4375 C 10.441406 -12.769531 7.132812 -16.429688 4.84375 -20.421875 L 17.890625 -36.34375 L 19.9375 -36.34375 C 23.539062 -30.976562 28.117188 -26.707031 33.671875 -23.53125 C 39.222656 -20.363281 45.71875 -18.78125 53.15625 -18.78125 C 59.5 -18.78125 64.285156 -20.117188 67.515625 -22.796875 C 70.742188 -25.484375 72.359375 -29.175781 72.359375 -33.875 C 72.359375 -36.71875 71.835938 -39.097656 70.796875 -41.015625 C 69.753906 -42.929688 68.03125 -44.570312 65.625 -45.9375 C 63.21875 -47.300781 59.960938 -48.476562 55.859375 -49.46875 L 40.4375 -53 C 29.664062 -55.457031 21.640625 -59.539062 16.359375 -65.25 C 11.085938 -70.96875 8.453125 -78.394531 8.453125 -87.53125 C 8.453125 -94.3125 10.144531 -100.269531 13.53125 -105.40625 C 16.925781 -110.550781 21.863281 -114.546875 28.34375 -117.390625 C 34.820312 -120.234375 42.570312 -121.65625 51.59375 -121.65625 C 60.84375 -121.65625 68.757812 -120.4375 75.34375 -118 C 81.9375 -115.570312 87.503906 -111.84375 92.046875 -106.8125 L 80.3125 -90.734375 L 78.265625 -90.734375 C 74.867188 -94.285156 70.984375 -96.945312 66.609375 -98.71875 C 62.234375 -100.5 57.226562 -101.390625 51.59375 -101.390625 C 45.09375 -101.390625 40.144531 -100.238281 36.75 -97.9375 C 33.363281 -95.644531 31.671875 -92.476562 31.671875 -88.4375 C 31.671875 -84.65625 32.859375 -81.644531 35.234375 -79.40625 C 37.609375 -77.164062 41.722656 -75.414062 47.578125 -74.15625 L 63.328125 -70.875 C 74.972656 -68.414062 83.421875 -64.242188 88.671875 -58.359375 C 93.921875 -52.484375 96.546875 -44.816406 96.546875 -35.359375 C 96.546875 -27.867188 94.929688 -21.347656 91.703125 -15.796875 C 88.484375 -10.242188 83.617188 -5.9375 77.109375 -2.875 C 70.597656 0.183594 62.613281 1.71875 53.15625 1.71875 Z M 53.15625 1.71875 "/></g></g><g transform="translate(929.236038, 1438.014456)"><g><path d="M 93.03125 -74.8125 L 93.03125 -119.9375 L 116.65625 -119.9375 L 116.65625 0 L 93.03125 0 L 93.03125 -54.640625 L 39.296875 -54.640625 L 39.296875 0 L 15.59375 0 L 15.59375 -119.9375 L 39.296875 -119.9375 L 39.296875 -74.8125 Z M 93.03125 -74.8125 "/></g></g><g transform="translate(1061.552433, 1438.014456)"><g><path d="M 115.09375 0 L 90.15625 0 L 81.125 -27.640625 L 35.1875 -27.640625 L 26.171875 0 L 1.8125 0 L 43.234375 -119.9375 L 73.671875 -119.9375 Z M 57.015625 -94.90625 L 41.59375 -47.578125 L 74.5625 -47.578125 L 59.0625 -94.90625 Z M 57.015625 -94.90625 "/></g></g><g transform="translate(1178.446954, 1438.014456)"><g><path d="M 38.5625 0 L 15.59375 0 L 15.59375 -119.9375 L 42.734375 -119.9375 L 90.890625 -42.65625 L 93.03125 -42.984375 L 93.03125 -119.9375 L 115.828125 -119.9375 L 115.828125 0 L 91.546875 0 L 40.609375 -82.53125 L 38.5625 -82.203125 Z M 38.5625 0 "/></g></g></g></svg>